<svg xmlns="http://www.w3.org/2000/svg" width="226" height="93.082" viewBox="0 0 226 93.082">
  <g id="buy-cv" transform="translate(-662 -883.918)">
    <g id="Group_3" data-name="Group 3" transform="translate(189.688 230.52)">
      <g id="Warstwa_2" data-name="Warstwa 2" transform="translate(528.643 653.398)">
        <path id="Path_368" data-name="Path 368" d="M41.288,12.347a2.236,2.236,0,0,1-.761.653A2.72,2.72,0,0,1,38.4,13a2.236,2.236,0,0,1-.8-.568,2.272,2.272,0,0,1-.52-.858,3.191,3.191,0,0,1,0-2.188,2.671,2.671,0,0,1,.52-.858,2.417,2.417,0,0,1,.81-.568,2.72,2.72,0,0,1,2.043,0,1.728,1.728,0,0,1,.786.616L42.7,7.125a3.626,3.626,0,0,0-1.475-.979,5.524,5.524,0,0,0-1.849-.326,5.391,5.391,0,0,0-1.874.363,4.581,4.581,0,0,0-1.535.931,4.231,4.231,0,0,0-1.015,1.475,4.762,4.762,0,0,0-.375,1.934,4.932,4.932,0,0,0,.363,1.91,4.424,4.424,0,0,0,1,1.487,4.351,4.351,0,0,0,1.511.955,5.137,5.137,0,0,0,1.9.338,4.835,4.835,0,0,0,1.994-.387,4.376,4.376,0,0,0,1.463-1.076Z" transform="translate(7.218 1.215)" fill="#e74a67"/>
        <path id="Path_369" data-name="Path 369" d="M44.206,11.4h.737l1.922,3.529H49.38l-2.321-3.807a2.744,2.744,0,0,0,1.354-.882A2.333,2.333,0,0,0,48.9,8.733a2.575,2.575,0,0,0-.29-1.281,2.526,2.526,0,0,0-.761-.834A3.276,3.276,0,0,0,46.8,6.183a5.306,5.306,0,0,0-1.209-.133H42.2v8.884h2.091Zm0-3.626H45.85a1.535,1.535,0,0,1,.471.145.907.907,0,0,1,.338.3.931.931,0,0,1,.133.544.979.979,0,0,1-.145.556,1.1,1.1,0,0,1-.375.326,1.934,1.934,0,0,1-.508.157H44.206Z" transform="translate(8.809 1.263)" fill="#e74a67"/>
        <path id="Path_370" data-name="Path 370" d="M51.276,14.922h2.152V11.163L56.836,6.05H54.322L52.436,9.338l-1.9-3.288h-2.6l3.336,5.113Z" transform="translate(10.007 1.263)" fill="#e74a67"/>
        <path id="Path_371" data-name="Path 371" d="M60.4,11.429a3.372,3.372,0,0,0,1.124-.483,2.127,2.127,0,0,0,.774-.858,2.671,2.671,0,0,0,.29-1.305A2.719,2.719,0,0,0,62.317,7.5a2.273,2.273,0,0,0-.737-.846A3.179,3.179,0,0,0,60.467,6.2a6.044,6.044,0,0,0-1.354-.145H55.85v8.884h2.139v-3.36h1.076a6.044,6.044,0,0,0,1.33-.15ZM57.977,9.87V7.778h.943a4.025,4.025,0,0,1,.556,0,1.414,1.414,0,0,1,.483.145.858.858,0,0,1,.338.314,1.088,1.088,0,0,1,0,1.039.906.906,0,0,1-.338.338,1.994,1.994,0,0,1-.5.169,2.961,2.961,0,0,1-.58,0Z" transform="translate(11.658 1.263)" fill="#e74a67"/>
        <path id="Path_372" data-name="Path 372" d="M64.234,14.922h2.152V7.875h2.5V6.05H61.72V7.875h2.514Z" transform="translate(12.883 1.263)" fill="#e74a67"/>
        <path id="Path_373" data-name="Path 373" d="M69.176,13.906a4.448,4.448,0,0,0,1.535.955,5.657,5.657,0,0,0,3.856,0,4.351,4.351,0,0,0,2.55-2.417,4.944,4.944,0,0,0,.363-1.922A4.835,4.835,0,0,0,77.117,8.6,4.074,4.074,0,0,0,76.1,7.137a4.291,4.291,0,0,0-1.535-.931,5.862,5.862,0,0,0-3.856,0,4.4,4.4,0,0,0-1.535.931,4.206,4.206,0,0,0-1,1.463,4.835,4.835,0,0,0-.363,1.922,4.944,4.944,0,0,0,.363,1.922,4.472,4.472,0,0,0,1,1.462Zm1.112-4.5a2.273,2.273,0,0,1,.52-.858,2.345,2.345,0,0,1,.858-.568,2.7,2.7,0,0,1,2.067,0,2.236,2.236,0,0,1,.8.568,2.272,2.272,0,0,1,.52.858,2.841,2.841,0,0,1,.193,1.076,3.034,3.034,0,0,1-.2,1.118,2.506,2.506,0,0,1-4.182.87,2.828,2.828,0,0,1-.52-.87,3.3,3.3,0,0,1-.181-1.112,3.1,3.1,0,0,1,.121-1.079Z" transform="translate(14.154 1.227)" fill="#e74a67"/>
        <path id="Path_374" data-name="Path 374" d="M45.437,21.17h-.048L43.31,14.8H40.88l3.4,8.981h2.16L49.9,14.8H47.5Z" transform="translate(8.533 3.089)" fill="#e74a67"/>
        <path id="Path_375" data-name="Path 375" d="M56.869,15.867a4.641,4.641,0,0,0-1.547-.931,5.741,5.741,0,0,0-1.958-.326,5.621,5.621,0,0,0-1.946.326,4.641,4.641,0,0,0-1.547.931,4.279,4.279,0,0,0-1.015,1.487A4.835,4.835,0,0,0,48.48,19.3a4.9,4.9,0,0,0,.375,1.946,4.5,4.5,0,0,0,1.015,1.511,4.726,4.726,0,0,0,1.547.967,5.355,5.355,0,0,0,1.946.338,5.463,5.463,0,0,0,1.958-.338,4.726,4.726,0,0,0,1.547-.967,4.5,4.5,0,0,0,1.015-1.511,4.9,4.9,0,0,0,.375-1.946,4.835,4.835,0,0,0-.375-1.946,4.279,4.279,0,0,0-1.014-1.487Zm-1.124,4.557a2.418,2.418,0,0,1-.532.87,2.272,2.272,0,0,1-.81.58,2.732,2.732,0,0,1-2.079,0,2.272,2.272,0,0,1-.81-.58,2.611,2.611,0,0,1-.52-.87A3.143,3.143,0,0,1,50.8,19.3a3.276,3.276,0,0,1,.181-1.1,2.5,2.5,0,0,1,.532-.858,2.611,2.611,0,0,1,.81-.58,2.659,2.659,0,0,1,1.039-.2,2.768,2.768,0,0,1,1.052.2,2.611,2.611,0,0,1,.81.58,2.671,2.671,0,0,1,.52.858,3.01,3.01,0,0,1,.193,1.1,3.143,3.143,0,0,1-.193,1.124Z" transform="translate(10.119 3.049)" fill="#e74a67"/>
        <path id="Path_376" data-name="Path 376" d="M63.2,20.213a2.6,2.6,0,0,1-.085.7,1.692,1.692,0,0,1-.29.592,1.4,1.4,0,0,1-.532.411,1.837,1.837,0,0,1-.774.157,1.934,1.934,0,0,1-.786-.157,1.45,1.45,0,0,1-.52-.411,2.249,2.249,0,0,1-.29-.592,2.587,2.587,0,0,1-.1-.7v-5.4H57.68V20.4a3.82,3.82,0,0,0,.266,1.475,3.409,3.409,0,0,0,.761,1.209,3.626,3.626,0,0,0,1.209.737,4.424,4.424,0,0,0,1.6.266,4.508,4.508,0,0,0,1.6-.266,3.747,3.747,0,0,0,1.209-.737,3.264,3.264,0,0,0,.774-1.209,3.82,3.82,0,0,0,.278-1.475V14.81H63.192Z" transform="translate(12.04 3.091)" fill="#e74a67"/>
        <path id="Path_377" data-name="Path 377" d="M71.173,21.814a2.345,2.345,0,0,1-1.124.254,2.417,2.417,0,0,1-2.357-1.632,3.034,3.034,0,0,1-.193-1.112,2.961,2.961,0,0,1,.193-1.1,2.417,2.417,0,0,1,.532-.87,2.611,2.611,0,0,1,.81-.58,2.768,2.768,0,0,1,1.052-.2,2.671,2.671,0,0,1,1.015.2,1.825,1.825,0,0,1,.8.616l1.523-1.463a3.626,3.626,0,0,0-1.5-.991,5.645,5.645,0,0,0-3.783,0,4.593,4.593,0,0,0-1.547.943,4.315,4.315,0,0,0-1.027,1.487,4.835,4.835,0,0,0-.375,1.958,4.944,4.944,0,0,0,.363,1.922,4.835,4.835,0,0,0,1.015,1.511,4.666,4.666,0,0,0,1.535.967,5.173,5.173,0,0,0,1.922.338,4.75,4.75,0,0,0,2.006-.4,4.194,4.194,0,0,0,1.39-1.088l-1.475-1.45a2.164,2.164,0,0,1-.774.689Z" transform="translate(13.607 3.049)" fill="#e74a67"/>
        <path id="Path_378" data-name="Path 378" d="M78.457,18.209H74.964V14.8H72.8v8.981h2.164V20.034h3.493v3.747h2.176V14.8H78.457Z" transform="translate(15.195 3.089)" fill="#e74a67"/>
        <path id="Path_379" data-name="Path 379" d="M82.9,20.07h3.723V18.329H82.9V16.637h3.94V14.8H80.81v8.981h6.261v-1.85H82.9Z" transform="translate(16.867 3.089)" fill="#e74a67"/>
        <path id="Path_380" data-name="Path 380" d="M92.172,19.931a2.647,2.647,0,0,0,1.366-.882,2.345,2.345,0,0,0,.5-1.535,2.623,2.623,0,0,0-.29-1.269,2.272,2.272,0,0,0-.786-.834,2.973,2.973,0,0,0-1.1-.447,5.415,5.415,0,0,0-1.209-.133H87.18V23.8H89.3V20.21h.737l1.946,3.566h2.538ZM91.8,18.106a1.112,1.112,0,0,1-.375.338,2.176,2.176,0,0,1-.52.157,4.108,4.108,0,0,1-.544,0H89.332V16.546h1.7a2.176,2.176,0,0,1,.471.145.967.967,0,0,1,.351.314.931.931,0,0,1,.133.508.979.979,0,0,1-.193.592Z" transform="translate(18.197 3.095)" fill="#e74a67"/>
        <path id="Path_381" data-name="Path 381" d="M21.757,20.911l-1.68-5.125a23.135,23.135,0,0,1-2.031,1.463,20.343,20.343,0,0,1-2.8,1.487h-.085a6.237,6.237,0,0,1-2.417.459,6.588,6.588,0,0,1-2.647-.52,6.044,6.044,0,0,1-2.079-1.463A6.793,6.793,0,0,1,6.66,14.976a8.123,8.123,0,0,1-.616-2.828,7.881,7.881,0,0,1,.483-2.816A6.7,6.7,0,0,1,7.941,7.1a6.044,6.044,0,0,1,2.1-1.487,6.587,6.587,0,0,1,2.7-.544,6.757,6.757,0,0,1,2.611.52,4.7,4.7,0,0,1,2.067,1.668l3.783-3.8A9.138,9.138,0,0,0,17.369.87,14.287,14.287,0,0,0,7.615.846,11.785,11.785,0,0,0,3.626,3.264,11.072,11.072,0,0,0,.967,7.119,12.728,12.728,0,0,0,0,12.148a12.728,12.728,0,0,0,.943,4.968A11.773,11.773,0,0,0,3.626,21a11.519,11.519,0,0,0,3.868,2.49,13.526,13.526,0,0,0,4.956.882,12.728,12.728,0,0,0,4.581-.786,34.775,34.775,0,0,0,3.844-2.1Z" transform="translate(0.001)" fill="#e74a67"/>
        <path id="Path_382" data-name="Path 382" d="M20.888,25.335h-.121l-1.608-4.919c-.181.121-.351.254-.544.363A34.147,34.147,0,0,1,14.53,23l3.4,8.932h5.512l8.8-22.784H26.194Z" transform="translate(3.034 1.91)" fill="#e74a67"/>
        <path id="Path_383" data-name="Path 383" d="M12.583,15.472a18.687,18.687,0,0,0,2.55-1.354,18.735,18.735,0,0,0,2.309-1.7L16.379,9.15H10.19Z" transform="translate(2.128 1.91)" fill="#e74a67"/>
      </g>
      <g id="Group_5" data-name="Group 5" transform="translate(5 5)">
        <rect id="Rectangle_6" data-name="Rectangle 6" width="226" height="40" rx="3" transform="translate(467.312 701.48)" fill="#e74a67"/>
        <path id="Path_410" data-name="Path 410" d="M6.678-12.916a1.989,1.989,0,0,1,1.23.748,2.186,2.186,0,0,1,.482,1.4,2.248,2.248,0,0,1-.349,1.249,2.325,2.325,0,0,1-1.008.845,3.694,3.694,0,0,1-1.56.3H1.656v-8.852H5.308a3.788,3.788,0,0,1,1.554.292,2.212,2.212,0,0,1,.989.812,2.125,2.125,0,0,1,.336,1.179,2.017,2.017,0,0,1-.412,1.294A2.205,2.205,0,0,1,6.678-12.916Zm-3.247-.659H5.055a1.486,1.486,0,0,0,.977-.285,1,1,0,0,0,.342-.818,1.024,1.024,0,0,0-.342-.824,1.464,1.464,0,0,0-.977-.292H3.431ZM5.22-9.821a1.519,1.519,0,0,0,1.008-.3,1.065,1.065,0,0,0,.361-.862,1.11,1.11,0,0,0-.38-.894,1.532,1.532,0,0,0-1.027-.323H3.431v2.384ZM16.443-15.4v7.028H14.655v-.888a2.344,2.344,0,0,1-.894.717,2.776,2.776,0,0,1-1.2.26,2.977,2.977,0,0,1-1.458-.349,2.458,2.458,0,0,1-1-1.027,3.4,3.4,0,0,1-.361-1.617V-15.4h1.775v3.868a1.822,1.822,0,0,0,.416,1.287,1.482,1.482,0,0,0,1.141.45,1.5,1.5,0,0,0,1.154-.45,1.822,1.822,0,0,0,.419-1.287V-15.4Zm8.472,0L20.565-5.053h-1.89l1.522-3.5L17.382-15.4h1.991L21.186-10.5,23.027-15.4Zm3.54,2.589a4.637,4.637,0,0,1,.59-2.34,4.211,4.211,0,0,1,1.611-1.611,4.57,4.57,0,0,1,2.289-.577,4.5,4.5,0,0,1,2.6.761,3.978,3.978,0,0,1,1.56,2.105H35.06a2.114,2.114,0,0,0-.856-.951,2.512,2.512,0,0,0-1.275-.317,2.622,2.622,0,0,0-1.374.361,2.467,2.467,0,0,0-.938,1.021,3.365,3.365,0,0,0-.338,1.547,3.376,3.376,0,0,0,.336,1.541,2.458,2.458,0,0,0,.938,1.027,2.622,2.622,0,0,0,1.374.361,2.474,2.474,0,0,0,1.275-.323,2.154,2.154,0,0,0,.856-.957H37.1a3.957,3.957,0,0,1-1.554,2.114,4.522,4.522,0,0,1-2.6.752,4.57,4.57,0,0,1-2.289-.577,4.224,4.224,0,0,1-1.611-1.6,4.6,4.6,0,0,1-.59-2.333Zm11.946-1.5a2.5,2.5,0,0,1,.894-.875,2.487,2.487,0,0,1,1.262-.317v1.864h-.469a1.8,1.8,0,0,0-1.262.393,1.812,1.812,0,0,0-.423,1.37v3.5H38.628V-15.4H40.4ZM50.469-15.4,46.119-5.053h-1.89l1.52-3.5L42.936-15.4h1.991L46.74-10.5,48.579-15.4ZM53.2-14.389a2.7,2.7,0,0,1,.945-.8,2.863,2.863,0,0,1,1.374-.323,3.073,3.073,0,0,1,1.63.444A3.123,3.123,0,0,1,58.3-13.81a4.056,4.056,0,0,1,.423,1.9,4.134,4.134,0,0,1-.423,1.909,3.2,3.2,0,0,1-1.154,1.287,3.008,3.008,0,0,1-1.63.457,2.835,2.835,0,0,1-1.363-.317,2.925,2.925,0,0,1-.955-.8v4.352H51.42V-15.4H53.2Zm3.716,2.473a2.2,2.2,0,0,0-.26-1.1,1.8,1.8,0,0,0-.687-.7,1.833,1.833,0,0,0-.919-.241,1.773,1.773,0,0,0-.907.247,1.836,1.836,0,0,0-.687.717,2.241,2.241,0,0,0-.26,1.1,2.241,2.241,0,0,0,.26,1.1,1.836,1.836,0,0,0,.687.717,1.773,1.773,0,0,0,.907.247,1.762,1.762,0,0,0,.919-.254,1.883,1.883,0,0,0,.687-.723,2.269,2.269,0,0,0,.26-1.116Zm5.174-2.029v3.4a.672.672,0,0,0,.171.514.841.841,0,0,0,.577.159h.824v1.494H62.542A1.957,1.957,0,0,1,60.3-10.557v-3.386H59.46V-15.4H60.3v-1.737h1.788V-15.4h1.573v1.458Zm5.973,5.684a3.7,3.7,0,0,1-1.826-.45,3.242,3.242,0,0,1-1.275-1.275,3.819,3.819,0,0,1-.463-1.9,3.738,3.738,0,0,1,.476-1.9,3.3,3.3,0,0,1,1.3-1.275,3.773,3.773,0,0,1,1.839-.45,3.773,3.773,0,0,1,1.839.45,3.3,3.3,0,0,1,1.3,1.275,3.738,3.738,0,0,1,.476,1.9,3.662,3.662,0,0,1-.488,1.9,3.382,3.382,0,0,1-1.321,1.275A3.835,3.835,0,0,1,68.058-8.261Zm0-1.547a1.849,1.849,0,0,0,.907-.235,1.705,1.705,0,0,0,.678-.7,2.372,2.372,0,0,0,.254-1.141,2.114,2.114,0,0,0-.528-1.541,1.73,1.73,0,0,0-1.287-.539,1.691,1.691,0,0,0-1.275.539,2.147,2.147,0,0,0-.514,1.541,2.181,2.181,0,0,0,.5,1.541A1.649,1.649,0,0,0,68.058-9.808ZM84-17.227,80.753-8.375H78.6l-3.247-8.852h1.9l2.435,7.038,2.422-7.038Zm4.185,8.966a3.7,3.7,0,0,1-1.826-.45,3.242,3.242,0,0,1-1.275-1.275,3.819,3.819,0,0,1-.463-1.9,3.738,3.738,0,0,1,.476-1.9,3.3,3.3,0,0,1,1.3-1.275,3.773,3.773,0,0,1,1.839-.45,3.773,3.773,0,0,1,1.839.45,3.3,3.3,0,0,1,1.3,1.275,3.738,3.738,0,0,1,.476,1.9,3.662,3.662,0,0,1-.488,1.9A3.382,3.382,0,0,1,90.04-8.711,3.835,3.835,0,0,1,88.185-8.261Zm0-1.547a1.849,1.849,0,0,0,.907-.235,1.705,1.705,0,0,0,.678-.7,2.372,2.372,0,0,0,.254-1.141,2.114,2.114,0,0,0-.528-1.541,1.73,1.73,0,0,0-1.287-.539,1.691,1.691,0,0,0-1.275.539,2.147,2.147,0,0,0-.514,1.541,2.181,2.181,0,0,0,.5,1.541,1.649,1.649,0,0,0,1.264.539Zm11.6-5.595v7.028H98v-.888a2.344,2.344,0,0,1-.894.717,2.776,2.776,0,0,1-1.2.26,2.977,2.977,0,0,1-1.458-.349,2.458,2.458,0,0,1-1-1.027,3.4,3.4,0,0,1-.359-1.619V-15.4H94.87v3.868a1.822,1.822,0,0,0,.419,1.287,1.482,1.482,0,0,0,1.141.45,1.5,1.5,0,0,0,1.154-.45A1.822,1.822,0,0,0,98-11.535V-15.4Zm1.294,3.513a3.941,3.941,0,0,1,.444-1.909,3.171,3.171,0,0,1,1.23-1.268,3.559,3.559,0,0,1,1.8-.45,3.462,3.462,0,0,1,2.162.653,3.177,3.177,0,0,1,1.148,1.833h-1.915a1.4,1.4,0,0,0-.514-.717,1.491,1.491,0,0,0-.894-.26,1.464,1.464,0,0,0-1.2.552,2.442,2.442,0,0,0-.444,1.566,2.419,2.419,0,0,0,.444,1.554,1.464,1.464,0,0,0,1.2.552,1.346,1.346,0,0,0,1.408-.964h1.915a3.241,3.241,0,0,1-1.154,1.814,3.4,3.4,0,0,1-2.156.672,3.559,3.559,0,0,1-1.8-.45,3.171,3.171,0,0,1-1.23-1.268,3.941,3.941,0,0,1-.444-1.907ZM113.13-15.5a2.853,2.853,0,0,1,1.42.349,2.4,2.4,0,0,1,.97,1.027,3.527,3.527,0,0,1,.349,1.632v4.122h-1.775v-3.881a1.822,1.822,0,0,0-.419-1.287,1.482,1.482,0,0,0-1.141-.45,1.519,1.519,0,0,0-1.163.45,1.8,1.8,0,0,0-.423,1.287v3.881h-1.775V-17.76h1.775v3.234a2.314,2.314,0,0,1,.913-.719,3.024,3.024,0,0,1,1.268-.258Zm10.957,3.462a4.188,4.188,0,0,1-.053.687H118.9a1.747,1.747,0,0,0,.533,1.192,1.642,1.642,0,0,0,1.154.431,1.45,1.45,0,0,0,1.408-.85h1.915a3.2,3.2,0,0,1-1.167,1.668,3.406,3.406,0,0,1-2.116.653,3.665,3.665,0,0,1-1.82-.45,3.17,3.17,0,0,1-1.255-1.275,3.906,3.906,0,0,1-.45-1.9,3.978,3.978,0,0,1,.444-1.915,3.1,3.1,0,0,1,1.243-1.268,3.723,3.723,0,0,1,1.839-.444,3.694,3.694,0,0,1,1.8.431,3.035,3.035,0,0,1,1.23,1.224,3.7,3.7,0,0,1,.435,1.82Zm-1.839-.507a1.408,1.408,0,0,0-.495-1.1,1.752,1.752,0,0,0-1.179-.412,1.612,1.612,0,0,0-1.11.4,1.756,1.756,0,0,0-.552,1.11Zm4.908-1.763a2.5,2.5,0,0,1,.894-.875,2.487,2.487,0,0,1,1.262-.317v1.866h-.469a1.8,1.8,0,0,0-1.262.393,1.812,1.812,0,0,0-.423,1.37v3.5h-1.778V-15.4h1.775Z" transform="translate(514.656 733.24)" fill="#fff"/>
      </g>
    </g>
  </g>
</svg>
